<?xml version="1.0"?><svg xmlns="http://www.w3.org/2000/svg" xmlns:xlink="http://www.w3.org/1999/xlink" viewBox="220.7 230.97 329.69 61.26" preserveAspectRatio="xMidYMid" width="100%" height="100%"><clipPath id="7346"><rect x="0.375" y="0.375" width="768.25" height="521.25" /></clipPath><g id="drawing"><rect x="220.7" y="230.97" width="100%" height="100%" fill="rgb(255, 255, 255)" /><g id="page" clip-path="url(#7346)"><g id="Solid"><path d="M220.7 263.8 L220.7 263.8 L221.08 264.02 L221.46 264.24 L221.46 280.8 L221.08 281.02 L220.7 281.24 Z" stroke="rgb(0, 0, 0)" stroke-width="0" fill-rule="evenodd" stroke-linejoin="miter" fill="rgb(0, 0, 0)" shape-rendering="geometricPrecision" /><line x1="224.14" y1="265.79" x2="224.14" y2="279.25" stroke="rgb(0, 0, 0)" stroke-width="0.75" shape-rendering="auto" /></g><g id="Solid"><path d="M220.7 281.24 L220.7 281.24 L221.08 281.02 L221.46 280.8 L235.81 289.09 L235.81 289.52 L235.81 289.95 Z" stroke="rgb(0, 0, 0)" stroke-width="0" fill-rule="evenodd" stroke-linejoin="miter" fill="rgb(0, 0, 0)" shape-rendering="geometricPrecision" /></g><g id="Solid"><path d="M235.81 289.95 L235.81 289.95 L235.81 289.52 L235.81 289.09 L250.16 280.8 L250.53 281.02 L250.9 281.24 Z" stroke="rgb(0, 0, 0)" stroke-width="0" fill-rule="evenodd" stroke-linejoin="miter" fill="rgb(0, 0, 0)" shape-rendering="geometricPrecision" /><line x1="235.81" y1="285.99" x2="247.47" y2="279.25" stroke="rgb(0, 0, 0)" stroke-width="0.75" shape-rendering="auto" /></g><g id="Solid"><path d="M250.9 281.24 L250.9 281.24 L250.53 281.02 L250.16 280.8 L250.16 264.24 L250.53 264.02 L250.9 263.8 Z" stroke="rgb(0, 0, 0)" stroke-width="0" fill-rule="evenodd" stroke-linejoin="miter" fill="rgb(0, 0, 0)" shape-rendering="geometricPrecision" /></g><g id="Solid"><path d="M250.9 263.8 L250.9 263.8 L250.53 264.02 L250.16 264.24 L235.81 255.95 L235.81 255.52 L236.19 255.3 Z" stroke="rgb(0, 0, 0)" stroke-width="0" fill-rule="evenodd" stroke-linejoin="miter" fill="rgb(0, 0, 0)" shape-rendering="geometricPrecision" /><line x1="247.47" y1="265.79" x2="235.81" y2="259.05" stroke="rgb(0, 0, 0)" stroke-width="0.75" shape-rendering="auto" /></g><g id="Solid"><path d="M235.44 255.3 L235.44 255.3 L235.81 255.52 L235.81 255.95 L221.46 264.24 L221.08 264.02 L220.7 263.8 Z" stroke="rgb(0, 0, 0)" stroke-width="0" fill-rule="evenodd" stroke-linejoin="miter" fill="rgb(0, 0, 0)" shape-rendering="geometricPrecision" /></g><g><text xml:space="preserve" text-anchor="start" text-rendering="geometricPrecision"><tspan x="231.48" y="243.22" font-family="Arial" font-size="12" fill="rgb(0, 0, 0)">H</tspan></text></g><g id="Solid"><path d="M236.19 255.3 L236.19 255.3 L235.81 255.52 L235.44 255.3 L235.44 245.3 L235.81 245.3 L236.19 245.3 Z" stroke="rgb(0, 0, 0)" stroke-width="0" fill-rule="evenodd" stroke-linejoin="miter" fill="rgb(0, 0, 0)" shape-rendering="geometricPrecision" /></g><g id="Arrow"><g id="Equilibrium Arrow"><line x1="289.55" y1="260.48" x2="257.82" y2="260.48" stroke="rgb(0, 0, 0)" stroke-width="0.75" shape-rendering="auto" /><line x1="293.99" y1="262.72" x2="262.26" y2="262.72" stroke="rgb(0, 0, 0)" stroke-width="0.75" shape-rendering="auto" /></g><path d="M295.12 260.85 L287.62 258.6 C288.99 259.87 288.55 260.85 288.55 260.85 Z" stroke="rgb(0, 0, 0)" stroke-width="0" fill-rule="evenodd" stroke-linejoin="miter" stroke-miterlimit="7.56907537474646" fill="rgb(0, 0, 0)" shape-rendering="geometricPrecision" /><path d="M256.7 262.35 L264.2 264.6 C262.82 263.33 263.26 262.35 263.26 262.35 Z" stroke="rgb(0, 0, 0)" stroke-width="0" fill-rule="evenodd" stroke-linejoin="miter" stroke-miterlimit="7.56907537474646" fill="rgb(0, 0, 0)" shape-rendering="geometricPrecision" /></g><g><text xml:space="preserve" text-anchor="start" text-rendering="geometricPrecision"><tspan x="268.19" y="257.58" font-family="Arial" font-size="12" fill="rgb(0, 0, 0)">Br</tspan></text></g><g id="Solid"><path d="M307.98 264.67 L307.98 264.67 L308.36 264.89 L308.74 265.11 L308.74 281.67 L308.36 281.89 L307.98 282.11 Z" stroke="rgb(0, 0, 0)" stroke-width="0" fill-rule="evenodd" stroke-linejoin="miter" fill="rgb(0, 0, 0)" shape-rendering="geometricPrecision" /><line x1="311.42" y1="266.66" x2="311.42" y2="280.12" stroke="rgb(0, 0, 0)" stroke-width="0.75" shape-rendering="auto" /></g><g id="Solid"><path d="M307.98 282.11 L307.98 282.11 L308.36 281.89 L308.74 281.67 L323.08 289.96 L323.08 290.39 L323.08 290.82 Z" stroke="rgb(0, 0, 0)" stroke-width="0" fill-rule="evenodd" stroke-linejoin="miter" fill="rgb(0, 0, 0)" shape-rendering="geometricPrecision" /></g><g id="Solid"><path d="M323.08 290.82 L323.08 290.82 L323.08 290.39 L323.08 289.96 L337.43 281.67 L337.8 281.89 L338.17 282.11 Z" stroke="rgb(0, 0, 0)" stroke-width="0" fill-rule="evenodd" stroke-linejoin="miter" fill="rgb(0, 0, 0)" shape-rendering="geometricPrecision" /><line x1="323.08" y1="286.86" x2="334.74" y2="280.12" stroke="rgb(0, 0, 0)" stroke-width="0.75" shape-rendering="auto" /></g><g id="Solid"><g id="Bond's parts"><path d="M337.95 264.8 L337.95 264.8 L338.15 264.75 L338.15 270.25 L337.45 270.25 L337.45 265.05 L337.67 265 L337.73 264.9 Z" stroke="rgb(0, 0, 0)" stroke-width="0" fill-rule="evenodd" stroke-linejoin="miter" fill="rgb(0, 0, 0)" shape-rendering="geometricPrecision" /><path d="M337.45 274.95 L337.45 274.95 L338.15 274.95 L338.15 282.05 L337.92 282 L337.88 281.9 L337.65 281.8 Z" stroke="rgb(0, 0, 0)" stroke-width="0" fill-rule="evenodd" stroke-linejoin="miter" fill="rgb(0, 0, 0)" shape-rendering="geometricPrecision" /></g></g><g id="Solid"><path d="M338.17 264.67 L338.17 264.67 L337.8 264.89 L337.43 265.11 L323.08 256.82 L323.08 256.39 L323.46 256.17 Z" stroke="rgb(0, 0, 0)" stroke-width="0" fill-rule="evenodd" stroke-linejoin="miter" fill="rgb(0, 0, 0)" shape-rendering="geometricPrecision" /><line x1="334.74" y1="266.66" x2="323.08" y2="259.92" stroke="rgb(0, 0, 0)" stroke-width="0.75" shape-rendering="auto" /></g><g id="Solid"><path d="M322.71 256.17 L322.71 256.17 L323.08 256.39 L323.08 256.82 L308.74 265.11 L308.36 264.89 L307.98 264.67 Z" stroke="rgb(0, 0, 0)" stroke-width="0" fill-rule="evenodd" stroke-linejoin="miter" fill="rgb(0, 0, 0)" shape-rendering="geometricPrecision" /></g><g id="Solid"><path d="M323.46 256.17 L323.46 256.17 L323.08 256.39 L322.71 256.17 L322.71 246.1 L323.08 246.1 L323.46 246.1 Z" stroke="rgb(0, 0, 0)" stroke-width="0" fill-rule="evenodd" stroke-linejoin="miter" fill="rgb(0, 0, 0)" shape-rendering="geometricPrecision" /></g><g><text xml:space="preserve" text-anchor="start" text-rendering="geometricPrecision"><tspan x="318.75" y="244.09" font-family="Arial" font-size="12" fill="rgb(0, 0, 0)">H</tspan></text></g><g><text xml:space="preserve" text-anchor="start" text-rendering="geometricPrecision"><tspan x="342.37" y="277.31" font-family="Arial" font-size="12" fill="rgb(0, 0, 0)">Br</tspan></text></g><g id="Dash"><path d="M331.97 272.99 L331.97 272.99 L331.97 272.24 L329.37 272.24 L329.37 272.61 L329.37 272.98 Z" stroke="rgb(0, 0, 0)" stroke-width="0" fill-rule="evenodd" stroke-linejoin="miter" fill="rgb(0, 0, 0)" shape-rendering="geometricPrecision" /><path d="M338.7 272.99 L338.7 272.99 L338.7 272.24 L341.3 272.24 L341.3 272.61 L341.3 272.99 Z" stroke="rgb(0, 0, 0)" stroke-width="0" fill-rule="evenodd" stroke-linejoin="miter" fill="rgb(0, 0, 0)" shape-rendering="geometricPrecision" /><path d="M334.03 272.99 L334.03 272.99 L336.63 272.99 L336.63 272.24 L334.03 272.24 Z" stroke="rgb(0, 0, 0)" stroke-width="0" fill-rule="evenodd" stroke-linejoin="miter" fill="rgb(0, 0, 0)" shape-rendering="geometricPrecision" /></g><g id="Bracket"><path d="M356.21 231.72 L360.82 231.72 L360.82 291.48 L356.21 291.48 " stroke="rgb(0, 0, 0)" stroke-width="0.75" fill-rule="evenodd" stroke-linejoin="miter" fill="none" shape-rendering="geometricPrecision" /></g><g id="Bracket"><path d="M306.46 291.48 L301.85 291.48 L301.85 231.72 L306.46 231.72 " stroke="rgb(0, 0, 0)" stroke-width="0.75" fill-rule="evenodd" stroke-linejoin="miter" fill="none" shape-rendering="geometricPrecision" /></g><g id="Arrow"><g id="Equilibrium Arrow"><line x1="398.84" y1="260.48" x2="367.11" y2="260.48" stroke="rgb(0, 0, 0)" stroke-width="0.75" shape-rendering="auto" /><line x1="403.28" y1="262.72" x2="371.55" y2="262.72" stroke="rgb(0, 0, 0)" stroke-width="0.75" shape-rendering="auto" /></g><path d="M404.4 260.85 L396.9 258.6 C398.28 259.87 397.84 260.85 397.84 260.85 Z" stroke="rgb(0, 0, 0)" stroke-width="0" fill-rule="evenodd" stroke-linejoin="miter" stroke-miterlimit="7.56907537474646" fill="rgb(0, 0, 0)" shape-rendering="geometricPrecision" /><path d="M365.98 262.35 L373.48 264.6 C372.11 263.33 372.55 262.35 372.55 262.35 Z" stroke="rgb(0, 0, 0)" stroke-width="0" fill-rule="evenodd" stroke-linejoin="miter" stroke-miterlimit="7.56907537474646" fill="rgb(0, 0, 0)" shape-rendering="geometricPrecision" /></g><g id="Solid"><path d="M423.87 264.67 L423.87 264.67 L424.25 264.89 L424.63 265.11 L424.63 281.67 L424.25 281.89 L423.87 282.11 Z" stroke="rgb(0, 0, 0)" stroke-width="0" fill-rule="evenodd" stroke-linejoin="miter" fill="rgb(0, 0, 0)" shape-rendering="geometricPrecision" /></g><g id="Solid"><path d="M423.87 282.11 L423.87 282.11 L424.25 281.89 L424.63 281.67 L438.97 289.96 L438.97 290.39 L438.97 290.82 Z" stroke="rgb(0, 0, 0)" stroke-width="0" fill-rule="evenodd" stroke-linejoin="miter" fill="rgb(0, 0, 0)" shape-rendering="geometricPrecision" /><line x1="427.31" y1="280.12" x2="438.97" y2="286.86" stroke="rgb(0, 0, 0)" stroke-width="0.75" shape-rendering="auto" /></g><g id="Solid"><path d="M438.97 290.82 L438.97 290.82 L438.97 290.39 L438.97 289.96 L453.32 281.67 L453.69 281.89 L454.06 282.11 Z" stroke="rgb(0, 0, 0)" stroke-width="0" fill-rule="evenodd" stroke-linejoin="miter" fill="rgb(0, 0, 0)" shape-rendering="geometricPrecision" /></g><g id="Solid"><path d="M454.06 282.11 L454.06 282.11 L453.69 281.89 L453.32 281.67 L453.32 265.11 L453.69 264.89 L454.06 264.67 Z" stroke="rgb(0, 0, 0)" stroke-width="0" fill-rule="evenodd" stroke-linejoin="miter" fill="rgb(0, 0, 0)" shape-rendering="geometricPrecision" /><line x1="450.63" y1="280.12" x2="450.63" y2="266.66" stroke="rgb(0, 0, 0)" stroke-width="0.75" shape-rendering="auto" /></g><g id="Solid"><path d="M454.06 264.67 L454.06 264.67 L453.69 264.89 L453.32 265.11 L438.97 256.82 L438.97 256.39 L439.48 256.25 Z" stroke="rgb(0, 0, 0)" stroke-width="0" fill-rule="evenodd" stroke-linejoin="miter" fill="rgb(0, 0, 0)" shape-rendering="geometricPrecision" /></g><g id="Solid"><path d="M438.46 256.25 L438.46 256.25 L438.97 256.39 L438.97 256.82 L424.63 265.11 L424.25 264.89 L423.87 264.67 Z" stroke="rgb(0, 0, 0)" stroke-width="0" fill-rule="evenodd" stroke-linejoin="miter" fill="rgb(0, 0, 0)" shape-rendering="geometricPrecision" /></g><g id="Bracket"><path d="M459.52 231.72 L464.13 231.72 L464.13 291.48 L459.52 291.48 " stroke="rgb(0, 0, 0)" stroke-width="0.75" fill-rule="evenodd" stroke-linejoin="miter" fill="none" shape-rendering="geometricPrecision" /></g><g id="Bracket"><path d="M417.25 291.48 L412.64 291.48 L412.64 231.72 L417.25 231.72 " stroke="rgb(0, 0, 0)" stroke-width="0.75" fill-rule="evenodd" stroke-linejoin="miter" fill="none" shape-rendering="geometricPrecision" /></g><g id="Solid"><path d="M438.97 255.64 L438.97 255.64 L438.97 256.39 L438.46 256.25 L433.88 248.32 L434.2 248.13 L434.53 247.94 Z" stroke="rgb(0, 0, 0)" stroke-width="0" fill-rule="evenodd" stroke-linejoin="miter" fill="rgb(0, 0, 0)" shape-rendering="geometricPrecision" /></g><g><text xml:space="preserve" text-anchor="start" text-rendering="geometricPrecision"><tspan x="426.14" y="246.37" font-family="Arial" font-size="12" fill="rgb(0, 0, 0)">H</tspan></text></g><g><text xml:space="preserve" text-anchor="start" text-rendering="geometricPrecision"><tspan x="443.47" y="246.37" font-family="Arial" font-size="12" fill="rgb(0, 0, 0)">Br</tspan></text></g><g id="Solid"><path d="M439.48 256.25 L439.48 256.25 L438.97 256.39 L438.97 255.64 L443.41 247.94 L443.74 248.13 L444.06 248.32 Z" stroke="rgb(0, 0, 0)" stroke-width="0" fill-rule="evenodd" stroke-linejoin="miter" fill="rgb(0, 0, 0)" shape-rendering="geometricPrecision" /></g><g><text xml:space="preserve" text-anchor="start" text-rendering="geometricPrecision"><tspan x="481.51" y="258.08" font-family="Arial" font-size="12" fill="rgb(0, 0, 0)">-H</tspan><tspan font-family="Arial" dy="-4.89" font-size="9" fill="rgb(0, 0, 0)">+</tspan></text></g><g id="Solid"><path d="M520.19 263.8 L520.19 263.8 L520.57 264.02 L520.95 264.24 L520.95 280.8 L520.57 281.02 L520.19 281.24 Z" stroke="rgb(0, 0, 0)" stroke-width="0" fill-rule="evenodd" stroke-linejoin="miter" fill="rgb(0, 0, 0)" shape-rendering="geometricPrecision" /><line x1="523.63" y1="265.79" x2="523.63" y2="279.25" stroke="rgb(0, 0, 0)" stroke-width="0.75" shape-rendering="auto" /></g><g id="Solid"><path d="M520.19 281.24 L520.19 281.24 L520.57 281.02 L520.95 280.8 L535.29 289.09 L535.29 289.52 L535.29 289.95 Z" stroke="rgb(0, 0, 0)" stroke-width="0" fill-rule="evenodd" stroke-linejoin="miter" fill="rgb(0, 0, 0)" shape-rendering="geometricPrecision" /></g><g id="Solid"><path d="M535.29 289.95 L535.29 289.95 L535.29 289.52 L535.29 289.09 L549.65 280.8 L550.02 281.02 L550.39 281.24 Z" stroke="rgb(0, 0, 0)" stroke-width="0" fill-rule="evenodd" stroke-linejoin="miter" fill="rgb(0, 0, 0)" shape-rendering="geometricPrecision" /><line x1="535.29" y1="285.99" x2="546.96" y2="279.25" stroke="rgb(0, 0, 0)" stroke-width="0.75" shape-rendering="auto" /></g><g id="Solid"><path d="M550.39 281.24 L550.39 281.24 L550.02 281.02 L549.65 280.8 L549.65 264.24 L550.02 264.02 L550.39 263.8 Z" stroke="rgb(0, 0, 0)" stroke-width="0" fill-rule="evenodd" stroke-linejoin="miter" fill="rgb(0, 0, 0)" shape-rendering="geometricPrecision" /></g><g id="Solid"><path d="M550.39 263.8 L550.39 263.8 L550.02 264.02 L549.65 264.24 L535.29 255.95 L535.29 255.52 L535.67 255.3 Z" stroke="rgb(0, 0, 0)" stroke-width="0" fill-rule="evenodd" stroke-linejoin="miter" fill="rgb(0, 0, 0)" shape-rendering="geometricPrecision" /><line x1="546.96" y1="265.79" x2="535.29" y2="259.05" stroke="rgb(0, 0, 0)" stroke-width="0.75" shape-rendering="auto" /></g><g id="Solid"><path d="M534.92 255.3 L534.92 255.3 L535.29 255.52 L535.29 255.95 L520.95 264.24 L520.57 264.02 L520.19 263.8 Z" stroke="rgb(0, 0, 0)" stroke-width="0" fill-rule="evenodd" stroke-linejoin="miter" fill="rgb(0, 0, 0)" shape-rendering="geometricPrecision" /></g><g><text xml:space="preserve" text-anchor="start" text-rendering="geometricPrecision"><tspan x="531.29" y="243.22" font-family="Arial" font-size="12" fill="rgb(0, 0, 0)">Br</tspan></text></g><g id="Solid"><path d="M535.67 255.3 L535.67 255.3 L535.29 255.52 L534.92 255.3 L534.92 245.3 L535.29 245.3 L535.67 245.3 Z" stroke="rgb(0, 0, 0)" stroke-width="0" fill-rule="evenodd" stroke-linejoin="miter" fill="rgb(0, 0, 0)" shape-rendering="geometricPrecision" /></g><g id="Arrow"><line x1="506.54" y1="262" x2="475.6" y2="262" stroke="rgb(0, 0, 0)" stroke-width="0.75" shape-rendering="auto" /><path d="M512.1 262 L504.6 260.12 C505.98 261.18 505.98 262.82 504.6 263.88 Z" stroke="rgb(0, 0, 0)" stroke-width="0" fill-rule="evenodd" stroke-linejoin="miter" stroke-miterlimit="8.66906256893602" fill="rgb(0, 0, 0)" shape-rendering="geometricPrecision" /></g><g id="Charge7335"><circle cx="419.4" cy="261.3" r="4" stroke="rgb(0, 0, 0)" stroke-width="0.6" fill="none" /><line x1="417.02" y1="261.3" x2="421.78" y2="261.3" stroke="rgb(0, 0, 0)" stroke-width="0.6" shape-rendering="auto" /><line x1="419.4" y1="258.92" x2="419.4" y2="263.68" stroke="rgb(0, 0, 0)" stroke-width="0.6" shape-rendering="auto" /></g><g id="Charge7337"><circle cx="283.8" cy="241.5" r="4" stroke="rgb(0, 0, 0)" stroke-width="0.6" fill="none" /><line x1="281.42" y1="241.5" x2="286.18" y2="241.5" stroke="rgb(0, 0, 0)" stroke-width="0.6" shape-rendering="auto" /><line x1="283.8" y1="239.12" x2="283.8" y2="243.88" stroke="rgb(0, 0, 0)" stroke-width="0.6" shape-rendering="auto" /></g><g id="Charge7338"><circle cx="354.9" cy="265.5" r="4" stroke="rgb(0, 0, 0)" stroke-width="0.6" fill="none" /><line x1="352.52" y1="265.5" x2="357.28" y2="265.5" stroke="rgb(0, 0, 0)" stroke-width="0.6" shape-rendering="auto" /><line x1="354.9" y1="263.12" x2="354.9" y2="267.88" stroke="rgb(0, 0, 0)" stroke-width="0.6" shape-rendering="auto" /></g></g></g></svg>